<svg xmlns="http://www.w3.org/2000/svg" xmlns:xlink="http://www.w3.org/1999/xlink" width="80.898" height="26" viewBox="0 0 80.898 26"><defs><clipPath id="a"><rect width="37.687" height="26" fill="none"/></clipPath></defs><g transform="translate(-140.204 -20)"><g transform="translate(140.204 20)"><g transform="translate(0 0)" clip-path="url(#a)"><path d="M3.261,38.331a3.024,3.024,0,0,0-1.353-.318.892.892,0,0,0-.535.135.433.433,0,0,0-.183.365q0,.379.569.541a3.447,3.447,0,0,1,1.417.663A1.447,1.447,0,0,1,3.1,41.809a2.32,2.32,0,0,1-1.442.379,3.208,3.208,0,0,1-.886-.132A2.7,2.7,0,0,1,0,41.714l.27-.9a2.5,2.5,0,0,0,1.434.474.83.83,0,0,0,.532-.145.5.5,0,0,0,.179-.409.459.459,0,0,0-.146-.352,1.329,1.329,0,0,0-.51-.244,3.22,3.22,0,0,1-1.33-.66,1.285,1.285,0,0,1-.4-.964,1.234,1.234,0,0,1,.48-1.022,2.139,2.139,0,0,1,1.354-.379,3.738,3.738,0,0,1,1.617.325Z" transform="translate(0 -16.188)" fill="#fff"/><path d="M8.024,37.8a2.457,2.457,0,0,1,1.823-.683,2.458,2.458,0,0,1,1.824.683,2.867,2.867,0,0,1,0,3.708,2.458,2.458,0,0,1-1.824.683,2.457,2.457,0,0,1-1.823-.683,2.867,2.867,0,0,1,0-3.708m.846,3.038a1.218,1.218,0,0,0,.977.406,1.219,1.219,0,0,0,.978-.406,2.186,2.186,0,0,0,0-2.368,1.219,1.219,0,0,0-.978-.406,1.218,1.218,0,0,0-.977.406,2.186,2.186,0,0,0,0,2.368" transform="translate(-3.203 -16.188)" fill="#fff"/><path d="M18.638,40.345v1.827h-1.13V37.233H19a2.963,2.963,0,0,1,1.637.348,1.2,1.2,0,0,1,.508,1.059,1.344,1.344,0,0,1-.268.812,1.421,1.421,0,0,1-.694.514v.014a1.441,1.441,0,0,1,.575.805l.521,1.387H20.093l-.467-1.34a.784.784,0,0,0-.23-.386.7.7,0,0,0-.419-.1Zm.426-2.24h-.426V39.5h.379a1.153,1.153,0,0,0,.724-.2.657.657,0,0,0,.251-.548.57.57,0,0,0-.213-.494,1.247,1.247,0,0,0-.714-.156" transform="translate(-7.636 -16.24)" fill="#fff"/><path d="M24.935,42.172l1.672-4.939h1.217L29.5,42.172H28.271L27.98,41.1H26.424l-.292,1.069Zm1.719-1.942h1.1l-.541-2h-.014Z" transform="translate(-10.876 -16.24)" fill="#fff"/><path d="M34.248,42.173V37.233h1.123l1.759,3.031h.014V37.233h1.123v4.939H37.143l-1.759-3.031h-.014v3.031Z" transform="translate(-14.938 -16.24)" fill="#fff"/><rect width="1.258" height="4.939" transform="translate(24.458 20.993)" fill="#fff"/><path d="M50.207,38.4h-.013l-.623,3.769H48.225l-1.089-4.939H48.3L48.922,41h.014l.582-3.769h1.394L51.493,41h.014l.622-3.769h1.137l-1.089,4.939H50.83Z" transform="translate(-20.559 -16.24)" fill="#fff"/><path d="M58.751,42.172l1.672-4.939H61.64l1.672,4.939H62.087L61.8,41.1H60.24l-.292,1.069ZM60.47,40.23h1.1l-.541-2h-.013Z" transform="translate(-25.625 -16.24)" fill="#fff"/><path d="M46.887,1.842A1.842,1.842,0,1,1,45.044,0a1.842,1.842,0,0,1,1.842,1.842" transform="translate(-18.844 0)" fill="#fff"/><path d="M34.95,14.643c.735.7,1.836-.426,1.1-1.125-4.5-4.3-7.756-2.7-10.122-1.529s-3.783,1.88-6.157-2.077L15.909,3.391,9.694,14.4a.787.787,0,0,0,1.364.784l4.884-8.652,2.477,4.183c3.123,5.206,5.825,3.865,8.209,2.68s4.619-2.294,8.322,1.245" transform="translate(-4.181 -1.479)" fill="#fff"/></g></g><path d="M3.382-14.5A2.19,2.19,0,0,1,2.337-12.35c-.874.646-1.178.855-1.178,1.425A1.123,1.123,0,0,0,2.318-9.8c1.349,0,1.862-1.672,1.786-2.964h2.2A8.412,8.412,0,0,1,2.033-6.1l.114.19C6.8-7.372,7.714-9.8,8.322-11.647c.323.038.551-.1.551-.285,0-.152-.209-.3-.38-.361l-1.672-.475h3.306v4.009c0,1.311.76,1.425,1.52,1.425h4.712c.836,0,1.292-.437,1.292-.931a1.234,1.234,0,0,0-.4-.8.923.923,0,0,1-.323-.627c0-.285.266-1.539.3-1.805l-.209-.057c-.95,2.47-1.292,2.47-1.881,2.47h-2.28c-.855,0-.855-.266-.855-.741v-2.318c.19-.038.418-.152.418-.361,0-.19-.19-.228-.4-.266h2.812a13.047,13.047,0,0,1-.969,2.185l.152.152a15.786,15.786,0,0,0,2.641-1.729,4.478,4.478,0,0,0,.551.057c.228,0,.494-.057.494-.342,0-.171-.1-.285-.323-.494l-1.121-.969a1.324,1.324,0,0,0-.627-.361c-.133,0-.285.171-.4.3l-.646.7H10.526v-1.653c.437-.114.475-.285.475-.342,0-.247-.38-.285-.532-.285l-2.223-.247v2.527h-4.2a5.421,5.421,0,0,0-.456-1.311ZM10.621.038V-4.18c.209-.1.3-.228.3-.323,0-.114-.133-.266-.323-.323h5.32c.152,0,.3-.019.3-.209,0-.133-.114-.209-.209-.285L14.63-6.4a.743.743,0,0,0-.361-.19c-.114,0-.209.095-.3.228L13.186-5.3H2.964l.323.475H8.379V.038H1.2l.3.475H17.708c.133,0,.285-.038.285-.209A.377.377,0,0,0,17.8,0L16.34-1.14A.651.651,0,0,0,16-1.311c-.114,0-.209.095-.3.228L14.858.038ZM23.313-14.706c.057,1.995.114,4.256.114,6.175,0,3.819-.323,6.536-1.653,9.31l.171.114c3.534-3.724,3.534-6.859,3.515-13.965H37.81c.247,0,.456-.038.456-.228a.592.592,0,0,0-.247-.38l-1.368-1.1a.733.733,0,0,0-.4-.209c-.133,0-.209.095-.323.247l-.95,1.2H31.787v-.95c.437-.3.475-.437.475-.551,0-.209-.228-.266-.684-.342l-2.033-.342v2.185H25.574Zm4.123,3.629c-.437,1.387-.8,2.508-1.2,3.534a3.792,3.792,0,0,0-.247.8c0,.323.494.342.722.342.969,0,1.026-.152,1.33-.931h.741a14.788,14.788,0,0,1-1.216,3.8,8.73,8.73,0,0,1-1.292-2.451l-.209.038a8.369,8.369,0,0,0,1.064,3.268A9.809,9.809,0,0,1,23.788.8l.076.209A10.056,10.056,0,0,0,27.93-1.539a7.272,7.272,0,0,0,5.6,2.128h4.389a2.383,2.383,0,0,1,1.178-2v-.209a34.36,34.36,0,0,1-4.845.266c-3.724,0-4.807-.608-5.548-1.1a10.882,10.882,0,0,0,1.805-3.971c.095-.019.817-.266.779-.57h1.558v3.686H30.476l.323.475h7.258c.133,0,.285-.019.285-.209,0-.076-.019-.152-.19-.3L36.8-4.5a.827.827,0,0,0-.361-.19c-.133,0-.247.152-.3.247l-.8,1.14h-.418V-6.992h3.61c.171,0,.285-.057.285-.228,0-.114-.076-.19-.19-.285L37.373-8.55a.688.688,0,0,0-.342-.19c-.114,0-.228.152-.3.247l-.722,1.007H34.922V-9.747c.247-.171.437-.3.437-.475,0-.152-.133-.228-.418-.285.3-.057,1.843-.361,2.185-.437a2.626,2.626,0,0,0,.513.057c.228,0,.361-.038.361-.171s-.171-.3-.684-.646L36.005-12.6a23.766,23.766,0,0,1-5.966,2.451v.228c.494-.038,1.178-.1,2.812-.285v2.717H30.913l-.95-.817c-.133-.114-.228-.209-.38-.209s-.285.114-.513.418l-.209.285h-.646c.342-.95.627-1.8.912-2.641.323-.114.779-.266.779-.513,0-.114-.114-.228-.323-.418l-.7-.608c-.19-.171-.342-.323-.494-.323-.133,0-.266.114-.437.285l-.456.456h-1.9l.266.494Z" transform="translate(182 41)" fill="#fff"/></g></svg>