<svg xmlns="http://www.w3.org/2000/svg" xmlns:xlink="http://www.w3.org/1999/xlink" width="71.893" height="174.325" viewBox="0 0 71.893 174.325"><defs><clipPath id="a"><rect width="71.893" height="49.599" fill="none"/></clipPath></defs><g transform="translate(-178 -166.774)"><g transform="translate(178 291.5)"><g transform="translate(0 0)" clip-path="url(#a)"><path d="M6.221,39.436A5.768,5.768,0,0,0,3.64,38.83a1.7,1.7,0,0,0-1.021.258.825.825,0,0,0-.348.7q0,.723,1.085,1.033a6.575,6.575,0,0,1,2.7,1.265,2.761,2.761,0,0,1-.148,3.988,4.426,4.426,0,0,1-2.75.723,6.12,6.12,0,0,1-1.69-.252A5.15,5.15,0,0,1,0,45.89l.515-1.717a4.773,4.773,0,0,0,2.736.9A1.584,1.584,0,0,0,4.266,44.8a.949.949,0,0,0,.342-.781.875.875,0,0,0-.279-.671,2.535,2.535,0,0,0-.973-.465A6.143,6.143,0,0,1,.82,41.624a2.451,2.451,0,0,1-.768-1.839,2.355,2.355,0,0,1,.915-1.949,4.081,4.081,0,0,1,2.583-.723,7.13,7.13,0,0,1,3.085.62Z" transform="translate(0 2.805)" fill="#fff"/><path d="M8.641,38.418a4.687,4.687,0,0,1,3.477-1.3,4.689,4.689,0,0,1,3.48,1.3,4.8,4.8,0,0,1,1.3,3.537,4.8,4.8,0,0,1-1.3,3.537,4.689,4.689,0,0,1-3.48,1.3,4.687,4.687,0,0,1-3.477-1.3,4.792,4.792,0,0,1-1.3-3.537,4.792,4.792,0,0,1,1.3-3.537m1.613,5.8a2.324,2.324,0,0,0,1.864.774,2.326,2.326,0,0,0,1.866-.774,3.378,3.378,0,0,0,.665-2.259,3.378,3.378,0,0,0-.665-2.259,2.326,2.326,0,0,0-1.866-.774,2.324,2.324,0,0,0-1.864.774,3.378,3.378,0,0,0-.665,2.259,3.378,3.378,0,0,0,.665,2.259" transform="translate(0.555 2.805)" fill="#fff"/><path d="M19.664,43.17v3.485H17.508V37.233h2.84a5.652,5.652,0,0,1,3.124.665,2.285,2.285,0,0,1,.969,2.02,2.563,2.563,0,0,1-.511,1.549,2.711,2.711,0,0,1-1.323.981v.026a2.748,2.748,0,0,1,1.1,1.536l.994,2.646H22.439L21.548,44.1a1.5,1.5,0,0,0-.439-.736,1.337,1.337,0,0,0-.8-.194Zm.813-4.272h-.813v2.659h.723a2.2,2.2,0,0,0,1.381-.374,1.254,1.254,0,0,0,.479-1.045,1.088,1.088,0,0,0-.407-.942,2.378,2.378,0,0,0-1.363-.3" transform="translate(1.324 2.814)" fill="#fff"/><path d="M24.935,46.655l3.189-9.422h2.322l3.189,9.422H31.3l-.555-2.039H27.776l-.556,2.039Zm3.28-3.7H30.3L29.272,39.13h-.026Z" transform="translate(1.885 2.814)" fill="#fff"/><path d="M34.248,46.656V37.233H36.39l3.356,5.782h.026V37.233h2.143v9.422H39.772l-3.356-5.782H36.39v5.782Z" transform="translate(2.589 2.814)" fill="#fff"/><rect width="2.401" height="9.422" transform="translate(46.659 40.048)" fill="#fff"/><path d="M53,39.466h-.025l-1.189,7.189H49.214l-2.078-9.422h2.22l1.187,7.189h.026l1.11-7.189h2.659l1.11,7.189h.026l1.187-7.189h2.168l-2.078,9.422H54.183Z" transform="translate(3.564 2.814)" fill="#fff"/><path d="M58.751,46.655l3.189-9.422h2.322l3.189,9.422H65.114l-.554-2.039H61.592l-.556,2.039Zm3.28-3.7h2.09L63.088,39.13h-.025Z" transform="translate(4.442 2.814)" fill="#fff"/><path d="M50.23,3.514A3.513,3.513,0,1,1,46.716,0,3.514,3.514,0,0,1,50.23,3.514" transform="translate(3.266 -0.001)" fill="#fff"/><path d="M57.972,24.856c1.4,1.329,3.5-.813,2.1-2.147-8.589-8.206-14.795-5.16-19.31-2.917-4.5,2.236-7.217,3.586-11.746-3.961L21.649,3.391,9.791,24.4a1.5,1.5,0,0,0,2.6,1.5L21.711,9.387l4.725,7.98C32.393,27.3,37.548,24.74,42.1,22.481c4.532-2.251,8.811-4.376,15.876,2.375" transform="translate(0.725 0.256)" fill="#fff"/></g></g><g transform="translate(12 -47)"><path d="M-14.812-35.1a5.3,5.3,0,0,1-2.53,5.2c-2.116,1.564-2.852,2.07-2.852,3.45a2.719,2.719,0,0,0,2.806,2.714c3.266,0,4.508-4.048,4.324-7.176h5.336c-1.058,8-4.324,12.236-10.35,16.146l.276.46c11.27-3.542,13.478-9.43,14.95-13.892.782.092,1.334-.23,1.334-.69,0-.368-.506-.736-.92-.874l-4.048-1.15h8v9.706c0,3.174,1.84,3.45,3.68,3.45H16.606c2.024,0,3.128-1.058,3.128-2.254a2.988,2.988,0,0,0-.966-1.932,2.233,2.233,0,0,1-.782-1.518c0-.69.644-3.726.736-4.37l-.506-.138c-2.3,5.98-3.128,5.98-4.554,5.98H8.142c-2.07,0-2.07-.644-2.07-1.794v-5.612c.46-.092,1.012-.368,1.012-.874,0-.46-.46-.552-.966-.644h6.808a31.587,31.587,0,0,1-2.346,5.29l.368.368a38.219,38.219,0,0,0,6.394-4.186,10.842,10.842,0,0,0,1.334.138c.552,0,1.2-.138,1.2-.828,0-.414-.23-.69-.782-1.2l-2.714-2.346a3.2,3.2,0,0,0-1.518-.874c-.322,0-.69.414-.966.736l-1.564,1.7H2.484v-4c1.058-.276,1.15-.69,1.15-.828,0-.6-.92-.69-1.288-.69l-5.382-.6v6.118H-13.2a13.124,13.124,0,0,0-1.1-3.174ZM2.714.092V-10.12c.506-.23.736-.552.736-.782,0-.276-.322-.644-.782-.782h12.88c.368,0,.736-.046.736-.506,0-.322-.276-.506-.506-.69L12.42-15.5a1.8,1.8,0,0,0-.874-.46c-.276,0-.506.23-.736.552L8.924-12.834H-15.824l.782,1.15H-2.714V.092H-20.1l.736,1.15H19.872c.322,0,.69-.092.69-.506A.912.912,0,0,0,20.1,0L16.56-2.76a1.576,1.576,0,0,0-.828-.414c-.276,0-.506.23-.736.552L12.972.092ZM-17.158,23.4c.138,4.83.276,10.3.276,14.95,0,9.246-.782,15.824-4,22.54l.414.276c8.556-9.016,8.556-16.606,8.51-33.81h29.9c.6,0,1.1-.092,1.1-.552a1.434,1.434,0,0,0-.6-.92l-3.312-2.668a1.774,1.774,0,0,0-.966-.506c-.322,0-.506.23-.782.6l-2.3,2.9H3.358V23.9c1.058-.736,1.15-1.058,1.15-1.334,0-.506-.552-.644-1.656-.828l-4.922-.828V26.2h-9.614Zm9.982,8.786c-1.058,3.358-1.932,6.072-2.9,8.556a9.179,9.179,0,0,0-.6,1.932c0,.782,1.2.828,1.748.828,2.346,0,2.484-.368,3.22-2.254H-3.91a35.8,35.8,0,0,1-2.944,9.2A21.136,21.136,0,0,1-9.982,44.51l-.506.092a20.262,20.262,0,0,0,2.576,7.912,23.749,23.749,0,0,1-8.1,8.418l.184.506A24.345,24.345,0,0,0-5.98,55.274c2.99,3.358,7.728,5.152,13.57,5.152H18.216a5.768,5.768,0,0,1,2.852-4.83V55.09a83.187,83.187,0,0,1-11.73.644c-9.016,0-11.638-1.472-13.432-2.668a26.347,26.347,0,0,0,4.37-9.614c.23-.046,1.978-.644,1.886-1.38H5.934V51H.184l.782,1.15H18.538c.322,0,.69-.046.69-.506,0-.184-.046-.368-.46-.736L15.5,48.1a2,2,0,0,0-.874-.46c-.322,0-.6.368-.736.6L11.96,51H10.948V42.072h8.74c.414,0,.69-.138.69-.552,0-.276-.184-.46-.46-.69L16.882,38.3a1.665,1.665,0,0,0-.828-.46c-.276,0-.552.368-.736.6L13.57,40.876H10.948V35.4c.6-.414,1.058-.736,1.058-1.15,0-.368-.322-.552-1.012-.69.736-.138,4.462-.874,5.29-1.058a6.357,6.357,0,0,0,1.242.138c.552,0,.874-.092.874-.414s-.414-.736-1.656-1.564L13.57,28.5A57.538,57.538,0,0,1-.874,34.436v.552c1.2-.092,2.852-.23,6.808-.69v6.578H1.242l-2.3-1.978c-.322-.276-.552-.506-.92-.506s-.69.276-1.242,1.012l-.506.69H-5.29c.828-2.3,1.518-4.37,2.208-6.394.782-.276,1.886-.644,1.886-1.242,0-.276-.276-.552-.782-1.012l-1.7-1.472c-.46-.414-.828-.782-1.2-.782-.322,0-.644.276-1.058.69l-1.1,1.1h-4.6l.644,1.2Z" transform="translate(201 252)" fill="#fff"/><g transform="translate(166 338.5)"><g transform="translate(0 0)" clip-path="url(#a)"><path d="M6.221,39.436A5.768,5.768,0,0,0,3.64,38.83a1.7,1.7,0,0,0-1.021.258.825.825,0,0,0-.348.7q0,.723,1.085,1.033a6.575,6.575,0,0,1,2.7,1.265,2.761,2.761,0,0,1-.148,3.988,4.426,4.426,0,0,1-2.75.723,6.12,6.12,0,0,1-1.69-.252A5.15,5.15,0,0,1,0,45.89l.515-1.717a4.773,4.773,0,0,0,2.736.9A1.584,1.584,0,0,0,4.266,44.8a.949.949,0,0,0,.342-.781.875.875,0,0,0-.279-.671,2.535,2.535,0,0,0-.973-.465A6.143,6.143,0,0,1,.82,41.624a2.451,2.451,0,0,1-.768-1.839,2.355,2.355,0,0,1,.915-1.949,4.081,4.081,0,0,1,2.583-.723,7.13,7.13,0,0,1,3.085.62Z" transform="translate(0 2.805)" fill="#fff"/><path d="M8.641,38.418a4.687,4.687,0,0,1,3.477-1.3,4.689,4.689,0,0,1,3.48,1.3,4.8,4.8,0,0,1,1.3,3.537,4.8,4.8,0,0,1-1.3,3.537,4.689,4.689,0,0,1-3.48,1.3,4.687,4.687,0,0,1-3.477-1.3,4.792,4.792,0,0,1-1.3-3.537,4.792,4.792,0,0,1,1.3-3.537m1.613,5.8a2.324,2.324,0,0,0,1.864.774,2.326,2.326,0,0,0,1.866-.774,3.378,3.378,0,0,0,.665-2.259,3.378,3.378,0,0,0-.665-2.259,2.326,2.326,0,0,0-1.866-.774,2.324,2.324,0,0,0-1.864.774,3.378,3.378,0,0,0-.665,2.259,3.378,3.378,0,0,0,.665,2.259" transform="translate(0.555 2.805)" fill="#fff"/><path d="M19.664,43.17v3.485H17.508V37.233h2.84a5.652,5.652,0,0,1,3.124.665,2.285,2.285,0,0,1,.969,2.02,2.563,2.563,0,0,1-.511,1.549,2.711,2.711,0,0,1-1.323.981v.026a2.748,2.748,0,0,1,1.1,1.536l.994,2.646H22.439L21.548,44.1a1.5,1.5,0,0,0-.439-.736,1.337,1.337,0,0,0-.8-.194Zm.813-4.272h-.813v2.659h.723a2.2,2.2,0,0,0,1.381-.374,1.254,1.254,0,0,0,.479-1.045,1.088,1.088,0,0,0-.407-.942,2.378,2.378,0,0,0-1.363-.3" transform="translate(1.324 2.814)" fill="#fff"/><path d="M24.935,46.655l3.189-9.422h2.322l3.189,9.422H31.3l-.555-2.039H27.776l-.556,2.039Zm3.28-3.7H30.3L29.272,39.13h-.026Z" transform="translate(1.885 2.814)" fill="#fff"/><path d="M34.248,46.656V37.233H36.39l3.356,5.782h.026V37.233h2.143v9.422H39.772l-3.356-5.782H36.39v5.782Z" transform="translate(2.589 2.814)" fill="#fff"/><rect width="2.401" height="9.422" transform="translate(46.659 40.048)" fill="#fff"/><path d="M53,39.466h-.025l-1.189,7.189H49.214l-2.078-9.422h2.22l1.187,7.189h.026l1.11-7.189h2.659l1.11,7.189h.026l1.187-7.189h2.168l-2.078,9.422H54.183Z" transform="translate(3.564 2.814)" fill="#fff"/><path d="M58.751,46.655l3.189-9.422h2.322l3.189,9.422H65.114l-.554-2.039H61.592l-.556,2.039Zm3.28-3.7h2.09L63.088,39.13h-.025Z" transform="translate(4.442 2.814)" fill="#fff"/><path d="M50.23,3.514A3.513,3.513,0,1,1,46.716,0,3.514,3.514,0,0,1,50.23,3.514" transform="translate(3.266 -0.001)" fill="#fff"/><path d="M57.972,24.856c1.4,1.329,3.5-.813,2.1-2.147-8.589-8.206-14.795-5.16-19.31-2.917-4.5,2.236-7.217,3.586-11.746-3.961L21.649,3.391,9.791,24.4a1.5,1.5,0,0,0,2.6,1.5L21.711,9.387l4.725,7.98C32.393,27.3,37.548,24.74,42.1,22.481c4.532-2.251,8.811-4.376,15.876,2.375" transform="translate(0.725 0.256)" fill="#fff"/></g></g></g></g></svg>